<svg xmlns="http://www.w3.org/2000/svg" viewBox="0 0 48 48">
  <defs>
    <linearGradient id="aaism-grad" x1="0%" y1="0%" x2="100%" y2="100%">
      <stop offset="0%" stop-color="#10b981"/>
      <stop offset="100%" stop-color="#06b6d4"/>
    </linearGradient>
    <linearGradient id="aaism-shield" x1="50%" y1="0%" x2="50%" y2="100%">
      <stop offset="0%" stop-color="#ffffff" stop-opacity="0.95"/>
      <stop offset="100%" stop-color="#ffffff" stop-opacity="0.75"/>
    </linearGradient>
  </defs>
  <rect width="48" height="48" rx="10" fill="url(#aaism-grad)"/>
  <path d="M24 6 L38 12 L38 24 C38 32 32 38 24 42 C16 38 10 32 10 24 L10 12 Z" fill="none" stroke="url(#aaism-shield)" stroke-width="1.8" stroke-linejoin="round"/>
  <path d="M24 24 L24 14 A10 10 0 0 1 32 20 Z" fill="white" fill-opacity="0.25"/>
  <circle cx="24" cy="24" r="10" fill="none" stroke="white" stroke-width="0.8" stroke-opacity="0.4"/>
  <circle cx="24" cy="24" r="6" fill="none" stroke="white" stroke-width="0.6" stroke-opacity="0.3"/>
  <circle cx="24" cy="24" r="2.2" fill="white"/>
  <circle cx="18" cy="18" r="1.4" fill="white" fill-opacity="0.85"/>
  <circle cx="30" cy="18" r="1.4" fill="white" fill-opacity="0.85"/>
  <circle cx="20" cy="30" r="1.2" fill="white" fill-opacity="0.7"/>
  <circle cx="28" cy="30" r="1.2" fill="white" fill-opacity="0.7"/>
  <line x1="24" y1="24" x2="18" y2="18" stroke="white" stroke-width="0.7" stroke-opacity="0.6"/>
  <line x1="24" y1="24" x2="30" y2="18" stroke="white" stroke-width="0.7" stroke-opacity="0.6"/>
  <line x1="24" y1="24" x2="20" y2="30" stroke="white" stroke-width="0.7" stroke-opacity="0.5"/>
  <line x1="24" y1="24" x2="28" y2="30" stroke="white" stroke-width="0.7" stroke-opacity="0.5"/>
  <circle cx="30" cy="20" r="1" fill="#6ee7b7"/>
</svg>
