<svg xmlns="http://www.w3.org/2000/svg" viewBox="0 0 48 48">
  <defs>
    <linearGradient id="aegis-bg" x1="0%" y1="0%" x2="100%" y2="100%">
      <stop offset="0%" stop-color="#060a10"/>
      <stop offset="100%" stop-color="#0f172a"/>
    </linearGradient>
    <linearGradient id="aegis-stroke" x1="0%" y1="100%" x2="100%" y2="0%">
      <stop offset="0%" stop-color="#10b981"/>
      <stop offset="45%" stop-color="#2dd4bf"/>
      <stop offset="100%" stop-color="#38bdf8"/>
    </linearGradient>
  </defs>
  <rect width="48" height="48" rx="10" fill="url(#aegis-bg)"/>
  <path d="M 24 7 L 38 14.5 V 26.5 C 38 33 31.5 38.5 24 41 C 16.5 38.5 10 33 10 26.5 V 14.5 Z" fill="none" stroke="url(#aegis-stroke)" stroke-width="1.1" stroke-linejoin="round"/>
  <path d="M 24 16 L 30 30 H 27.2 L 25.8 26.5 H 22.2 L 20.8 30 H 18 L 24 16 Z" fill="#f8fafc"/>
  <path d="M 22.5 24 H 25.5 L 24 19.5 Z" fill="url(#aegis-bg)"/>
  <circle cx="24" cy="19.5" r="1.75" fill="url(#aegis-stroke)"/>
  <circle cx="24" cy="19.5" r="4" fill="none" stroke="url(#aegis-stroke)" stroke-width="0.55" opacity="0.4"/>
  <path d="M 34 13 Q 40 20 37 30" fill="none" stroke="url(#aegis-stroke)" stroke-width="0.85" stroke-linecap="round"/>
  <circle cx="37" cy="30" r="1.35" fill="#2dd4bf"/>
  <circle cx="34" cy="13" r="0.9" fill="#38bdf8"/>
</svg>
