<svg xmlns="http://www.w3.org/2000/svg" viewBox="0 0 48 48">
  <defs>
    <linearGradient id="aaism-bg" x1="0%" y1="0%" x2="100%" y2="100%">
      <stop offset="0%" stop-color="#0c1222"/>
      <stop offset="100%" stop-color="#162032"/>
    </linearGradient>
    <linearGradient id="aaism-accent" x1="0%" y1="0%" x2="100%" y2="100%">
      <stop offset="0%" stop-color="#34d399"/>
      <stop offset="45%" stop-color="#2dd4bf"/>
      <stop offset="100%" stop-color="#22d3ee"/>
    </linearGradient>
    <linearGradient id="aaism-glow" x1="50%" y1="0%" x2="50%" y2="100%">
      <stop offset="0%" stop-color="#6ee7b7" stop-opacity="0.9"/>
      <stop offset="100%" stop-color="#22d3ee" stop-opacity="0.4"/>
    </linearGradient>
  </defs>
  <rect width="48" height="48" rx="11" fill="url(#aaism-bg)"/>
  <path d="M24 4.5 L38.5 12.8 V31.2 L24 39.5 L9.5 31.2 V12.8 Z" fill="none" stroke="url(#aaism-accent)" stroke-width="1.15" stroke-linejoin="round" opacity="0.88"/>
  <path d="M24 11.5 L31.5 34 H28.2 L26.4 28.5 H21.6 L19.8 34 H16.5 L24 11.5 Z" fill="white" fill-opacity="0.96"/>
  <path d="M22.1 25.5 H25.9 L24 19.2 Z" fill="url(#aaism-bg)"/>
  <circle cx="24" cy="20.5" r="1.6" fill="url(#aaism-accent)"/>
  <circle cx="24" cy="20.5" r="3.2" fill="none" stroke="url(#aaism-glow)" stroke-width="0.6" opacity="0.55"/>
  <path d="M33 14 Q37 18 36.5 24 Q36 30 33 33" fill="none" stroke="url(#aaism-accent)" stroke-width="0.75" stroke-linecap="round" opacity="0.65"/>
  <circle cx="33" cy="14" r="1.3" fill="#34d399"/>
  <circle cx="36.5" cy="21" r="1.1" fill="#2dd4bf"/>
  <circle cx="33.5" cy="28" r="1.2" fill="#22d3ee"/>
  <line x1="31" y1="18" x2="33" y2="14" stroke="#34d399" stroke-width="0.5" opacity="0.5"/>
  <line x1="30.5" y1="22" x2="36.5" y2="21" stroke="#2dd4bf" stroke-width="0.5" opacity="0.45"/>
</svg>
